<svg width="800" height="244" viewBox="0 0 800 244" fill="none" xmlns="http://www.w3.org/2000/svg">
<path d="M199 0H45C20.1472 0 0 20.1472 0 45V199C0 223.853 20.1472 244 45 244H199C223.853 244 244 223.853 244 199V45C244 20.1472 223.853 0 199 0Z" fill="url(#paint0_linear_1228_22)"/>
<path d="M142.271 183.578L136.136 189.69C134.331 191.501 131.883 192.518 129.331 192.518C126.778 192.518 124.331 191.501 122.526 189.69L117.861 184.992L116.208 183.333L88.4909 155.541C86.8988 153.936 86.0047 151.764 86.0047 149.499C86.0047 147.235 86.8988 145.062 88.4909 143.457L95.5658 136.35L114.711 155.559C118.883 159.74 124.539 162.089 130.436 162.089C136.333 162.089 141.989 159.74 146.161 155.559L136.589 145.954L92.8506 102.07L57.4582 66.5599L27 36L55.7177 75.2913L47.6158 115.857C46.2353 122.769 46.5785 129.916 48.6144 136.662C50.6503 143.409 54.316 149.546 59.2858 154.529L121.586 217.037C122.838 218.293 124.324 219.29 125.959 219.97C127.595 220.65 129.349 221 131.119 221C132.89 221 134.643 220.65 136.279 219.97C137.915 219.29 139.401 218.293 140.653 217.037L174 183.596C169.791 179.373 164.083 177.001 158.131 177.001C152.18 177.001 146.472 179.373 142.263 183.596L142.271 183.578Z" fill="white"/>
<path d="M188.352 165.767L196.108 127.128C197.488 120.217 197.139 113.073 195.092 106.329C193.045 99.5849 189.362 93.4479 184.37 88.4617L121.692 25.9627C120.433 24.7064 118.938 23.7098 117.293 23.0299C115.647 22.35 113.884 22 112.103 22C110.322 22 108.559 22.35 106.913 23.0299C105.268 23.7098 103.773 24.7064 102.514 25.9627L69 59.399C73.2332 63.6207 78.9742 65.9927 84.9605 65.9927C90.9468 65.9927 96.6882 63.6207 100.921 59.399L107.101 53.2879C107.996 52.3865 109.061 51.6713 110.235 51.1829C111.409 50.6946 112.669 50.4429 113.941 50.4429C115.213 50.4429 116.472 50.6946 117.647 51.1829C118.821 51.6713 119.886 52.3865 120.781 53.2879L125.473 57.9676L127.136 59.6262L155.013 87.4318C155.806 88.2215 156.434 89.159 156.863 90.1911C157.292 91.2232 157.513 92.3294 157.513 93.4466C157.513 94.5638 157.292 95.6704 156.863 96.7025C156.434 97.7346 155.806 98.6721 155.013 99.4618L147.897 106.568L128.641 87.3619C124.457 83.2058 118.792 80.8723 112.886 80.8723C106.981 80.8723 101.316 83.2058 97.1314 87.3619L144.046 134.243L186.234 176.331L217 207L188.352 165.767Z" fill="white"/>
<path d="M308.315 178.032C286.079 178.032 268.699 166.986 268 146.076H294.814C295.54 154.032 300.548 157.848 307.616 157.848C314.989 157.848 319.692 154.166 319.692 148.137C319.692 128.992 268.009 139.303 268.296 102.626C268.296 83.0241 284.35 72.166 306.004 72.166C328.526 72.166 343.693 83.3558 344.733 103.101H317.551C317.112 96.454 312.454 92.4848 305.663 92.3505C299.616 92.1982 295.047 95.289 295.047 101.784C295.047 119.702 346.157 111.638 346.157 146.246C346.022 163.591 332.441 178.032 308.315 178.032Z" fill="url(#paint1_radial_1228_22)"/>
<path d="M361.494 68H386.686V176.984H361.494V68Z" fill="url(#paint2_radial_1228_22)"/>
<path d="M436.165 93.6406C448.394 93.6406 457.093 99.231 461.509 106.452V94.8051H486.675V176.984H461.509V165.338C456.94 172.559 448.241 178.167 436.031 178.167C415.981 178.167 399.936 161.674 399.936 135.702C399.936 109.73 415.981 93.6406 436.165 93.6406ZM443.538 115.59C434.104 115.59 425.567 122.658 425.567 135.765C425.567 148.872 434.06 156.155 443.538 156.155C453.016 156.155 461.509 148.934 461.509 135.765C461.509 122.596 453.097 115.59 443.529 115.59H443.538Z" fill="url(#paint3_radial_1228_22)"/>
<path d="M563.426 114.845L528.487 156.235H564.161V176.993H500.365V157.05L534.534 115.669H500.67V94.8135H563.381L563.426 114.845Z" fill="url(#paint4_radial_1228_22)"/>
<path d="M636.475 114.845L601.536 156.235H637.209V176.993H573.432V157.05L607.609 115.669H573.736V94.8135H636.448L636.475 114.845Z" fill="url(#paint5_radial_1228_22)"/>
<path d="M687.605 178.193C663.416 178.193 646.062 161.986 646.062 135.916C646.062 109.846 663.219 93.6484 687.605 93.6484C711.605 93.6484 728.547 109.55 728.547 134.59C728.536 137.055 728.386 139.516 728.099 141.963H671.086C671.981 152.714 678.611 157.704 686.719 157.704C689.452 157.882 692.174 157.216 694.516 155.794C696.857 154.372 698.704 152.265 699.807 149.757H726.63C722.67 165.803 708.075 178.193 687.605 178.193ZM671.246 127.961H702.772C702.772 119.002 695.695 113.833 687.3 113.833C678.906 113.833 672.724 118.823 671.246 127.961Z" fill="url(#paint6_radial_1228_22)"/>
<path d="M766.997 176.993H741.805V94.8135H766.997V108.502C772.74 99.821 781.725 93.9355 792.762 93.9355V120.579H785.855C773.958 120.579 767.042 124.709 767.042 138.855L766.997 176.993Z" fill="url(#paint7_radial_1228_22)"/>
<defs>
<linearGradient id="paint0_linear_1228_22" x1="122" y1="0" x2="122" y2="244" gradientUnits="userSpaceOnUse">
<stop stop-color="#105EE0"/>
<stop offset="1" stop-color="#0F5DE0"/>
</linearGradient>
<radialGradient id="paint1_radial_1228_22" cx="0" cy="0" r="1" gradientUnits="userSpaceOnUse" gradientTransform="translate(307.078 125.099) scale(39.0784 52.9331)">
<stop stop-color="#448AFF"/>
<stop offset="1" stop-color="#0F5DDF"/>
</radialGradient>
<radialGradient id="paint2_radial_1228_22" cx="0" cy="0" r="1" gradientUnits="userSpaceOnUse" gradientTransform="translate(374.09 122.492) scale(12.5959 54.4919)">
<stop stop-color="#448AFF"/>
<stop offset="1" stop-color="#0F5DDF"/>
</radialGradient>
<radialGradient id="paint3_radial_1228_22" cx="0" cy="0" r="1" gradientUnits="userSpaceOnUse" gradientTransform="translate(443.305 135.904) scale(43.3697 42.2632)">
<stop stop-color="#448AFF"/>
<stop offset="1" stop-color="#0F5DDF"/>
</radialGradient>
<radialGradient id="paint4_radial_1228_22" cx="0" cy="0" r="1" gradientUnits="userSpaceOnUse" gradientTransform="translate(532.263 135.903) scale(31.8978 41.0896)">
<stop stop-color="#448AFF"/>
<stop offset="1" stop-color="#0F5DDF"/>
</radialGradient>
<radialGradient id="paint5_radial_1228_22" cx="0" cy="0" r="1" gradientUnits="userSpaceOnUse" gradientTransform="translate(605.32 135.903) scale(31.8889 41.0896)">
<stop stop-color="#448AFF"/>
<stop offset="1" stop-color="#0F5DDF"/>
</radialGradient>
<radialGradient id="paint6_radial_1228_22" cx="0" cy="0" r="1" gradientUnits="userSpaceOnUse" gradientTransform="translate(687.305 135.921) scale(41.242 42.2722)">
<stop stop-color="#448AFF"/>
<stop offset="1" stop-color="#0F5DDF"/>
</radialGradient>
<radialGradient id="paint7_radial_1228_22" cx="0" cy="0" r="1" gradientUnits="userSpaceOnUse" gradientTransform="translate(767.283 135.464) scale(25.4788 41.5285)">
<stop stop-color="#448AFF"/>
<stop offset="1" stop-color="#0F5DDF"/>
</radialGradient>
</defs>
</svg>
